<svg viewBox="0 0 20 20" fill="none" xmlns="http://www.w3.org/2000/svg">
<path d="M12.5 7.49078H17.5M12.5 7.49078V16.6462M12.5 7.49078H7.5M17.5 7.49078V14.9816C17.5 15.7664 17.5 16.1585 17.2558 16.4023C17.0117 16.6462 16.6192 16.6462 15.8333 16.6462H12.5M17.5 7.49078V4.99385C17.5 4.20898 17.5 3.81696 17.2558 3.57309C17.0117 3.32922 16.6192 3.32922 15.8333 3.32922H4.16667C3.38083 3.32922 2.98833 3.32922 2.74417 3.57309C2.5 3.81696 2.5 4.20898 2.5 4.99385V7.49078M17.5 7.49078H2.5M12.5 16.6462H7.5M2.5 7.49078H7.5M2.5 7.49078V14.9816C2.5 15.7664 2.5 16.1585 2.74417 16.4023C2.98833 16.6462 3.38083 16.6462 4.16667 16.6462H7.5M7.5 7.49078V16.6462" stroke="#FE912B" stroke-width="2" stroke-linecap="round"/>
</svg>
