<svg  viewBox="0 0 20 20" fill="none" xmlns="http://www.w3.org/2000/svg">
<path d="M15.75 17.8333H5.625C4.92881 17.8333 4.26113 17.5414 3.76884 17.0218C3.27656 16.5021 3 15.7974 3 15.0625V4.375C3 3.74511 3.23705 3.14102 3.65901 2.69562C4.08097 2.25022 4.65326 2 5.25 2H15.75C15.9489 2 16.1397 2.08341 16.2803 2.23187C16.421 2.38034 16.5 2.5817 16.5 2.79167V17.0417C16.5 17.2516 16.421 17.453 16.2803 17.6015C16.1397 17.7499 15.9489 17.8333 15.75 17.8333ZM15 16.25V13.875H5.625C5.32663 13.875 5.04048 14.0001 4.8295 14.2228C4.61853 14.4455 4.5 14.7476 4.5 15.0625C4.5 15.3774 4.61853 15.6795 4.8295 15.9022C5.04048 16.1249 5.32663 16.25 5.625 16.25H15Z" fill="#FE912B"/>
</svg>
