<svg  viewBox="0 0 20 20" fill="none" xmlns="http://www.w3.org/2000/svg">
<path d="M3.3975 15.8139C3.14194 15.8139 2.92861 15.7281 2.7575 15.5567C2.58639 15.3852 2.50056 15.1721 2.5 14.9175V5.0579C2.5 4.80266 2.58583 4.58958 2.7575 4.41868C2.92917 4.24778 3.1425 4.16205 3.3975 4.1615H6.04C6.28444 4.1615 6.49528 4.24972 6.6725 4.42617C6.84917 4.60318 6.9375 4.81375 6.9375 5.0579V14.9175C6.9375 15.1616 6.84917 15.3722 6.6725 15.5492C6.49528 15.7256 6.28444 15.8139 6.04 15.8139H3.3975ZM8.6725 15.8139C8.42806 15.8139 8.2175 15.7256 8.04083 15.5492C7.86417 15.3722 7.77583 15.1616 7.77583 14.9175V5.0579C7.77583 4.81375 7.86417 4.60318 8.04083 4.42617C8.2175 4.24972 8.42833 4.1615 8.67333 4.1615H11.3317C11.5761 4.1615 11.7869 4.24972 11.9642 4.42617C12.1408 4.60318 12.2292 4.81375 12.2292 5.0579V14.9175C12.2292 15.1616 12.1408 15.3722 11.9642 15.5492C11.7869 15.7256 11.5761 15.8139 11.3317 15.8139H8.6725ZM13.96 15.8139C13.7156 15.8139 13.5047 15.7256 13.3275 15.5492C13.1508 15.3722 13.0625 15.1616 13.0625 14.9175V5.0579C13.0625 4.81375 13.1508 4.60318 13.3275 4.42617C13.5047 4.24972 13.7156 4.1615 13.96 4.1615H16.6025C16.8581 4.1615 17.0714 4.24723 17.2425 4.41868C17.4136 4.59014 17.4994 4.80321 17.5 5.0579V14.9175C17.5 15.1727 17.4142 15.3858 17.2425 15.5567C17.0708 15.7276 16.8575 15.8133 16.6025 15.8139H13.96Z" fill="#FE912B"/>
</svg>
