<svg viewBox="0 0 20 20" fill="none" xmlns="http://www.w3.org/2000/svg">
<path fill-rule="evenodd" clip-rule="evenodd" d="M16.0983 3.36995C15.6763 2.94814 15.1041 2.71118 14.5075 2.71118C13.9109 2.71118 13.3387 2.94814 12.9168 3.36995L12.3865 3.90095L16.099 7.61345L16.6285 7.0832C16.8375 6.87426 17.0033 6.62621 17.1164 6.3532C17.2295 6.08019 17.2877 5.78758 17.2877 5.49208C17.2877 5.19657 17.2295 4.90396 17.1164 4.63095C17.0033 4.35794 16.8375 4.10989 16.6285 3.90095L16.0983 3.36995ZM15.0378 8.67395L11.3253 4.96145L4.50777 11.7797C4.35858 11.9289 4.25436 12.1171 4.20702 12.3227L3.43527 15.664C3.40651 15.788 3.40981 15.9173 3.44485 16.0397C3.4799 16.1621 3.54553 16.2736 3.63556 16.3637C3.7256 16.4537 3.83708 16.5193 3.95949 16.5544C4.08191 16.5894 4.21123 16.5927 4.33527 16.564L7.67727 15.793C7.88262 15.7455 8.07051 15.6413 8.21952 15.4922L15.0378 8.67395Z" fill="#FE912B"/>
</svg>
