<svg  viewBox="0 0 20 20" fill="none" xmlns="http://www.w3.org/2000/svg">
<path fill-rule="evenodd" clip-rule="evenodd" d="M5.8 2C5.54804 2 5.30641 2.09997 5.12825 2.27791C4.95009 2.45585 4.85 2.69719 4.85 2.94883V3.89767H3.9C3.39609 3.89767 2.91282 4.0976 2.5565 4.45348C2.20018 4.80936 2 5.29204 2 5.79534V15.2837C2 15.787 2.20018 16.2697 2.5565 16.6255C2.91282 16.9814 3.39609 17.1813 3.9 17.1813H15.3C15.8039 17.1813 16.2872 16.9814 16.6435 16.6255C16.9998 16.2697 17.2 15.787 17.2 15.2837V5.79534C17.2 5.29204 16.9998 4.80936 16.6435 4.45348C16.2872 4.0976 15.8039 3.89767 15.3 3.89767H14.35V2.94883C14.35 2.69719 14.2499 2.45585 14.0718 2.27791C13.8936 2.09997 13.652 2 13.4 2C13.148 2 12.9064 2.09997 12.7282 2.27791C12.5501 2.45585 12.45 2.69719 12.45 2.94883V3.89767H6.75V2.94883C6.75 2.69719 6.64991 2.45585 6.47175 2.27791C6.29359 2.09997 6.05196 2 5.8 2ZM5.8 6.74417C5.54804 6.74417 5.30641 6.84414 5.12825 7.02208C4.95009 7.20002 4.85 7.44136 4.85 7.69301C4.85 7.94465 4.95009 8.18599 5.12825 8.36393C5.30641 8.54187 5.54804 8.64184 5.8 8.64184H13.4C13.652 8.64184 13.8936 8.54187 14.0718 8.36393C14.2499 8.18599 14.35 7.94465 14.35 7.69301C14.35 7.44136 14.2499 7.20002 14.0718 7.02208C13.8936 6.84414 13.652 6.74417 13.4 6.74417H5.8Z" fill="#FE912B"/>
</svg>
