<svg  viewBox="0 0 20 20" fill="none" xmlns="http://www.w3.org/2000/svg">
<path fill-rule="evenodd" clip-rule="evenodd" d="M10 8.30356C10.5967 8.30356 11.169 8.0668 11.591 7.64536C12.0129 7.22392 12.25 6.65233 12.25 6.05633C12.25 5.46032 12.0129 4.88873 11.591 4.46729C11.169 4.04585 10.5967 3.80909 10 3.80909C9.40326 3.80909 8.83097 4.04585 8.40901 4.46729C7.98705 4.88873 7.75 5.46032 7.75 6.05633C7.75 6.65233 7.98705 7.22392 8.40901 7.64536C8.83097 8.0668 9.40326 8.30356 10 8.30356ZM10 9.98899C11.0443 9.98899 12.0458 9.57466 12.7842 8.83714C13.5227 8.09962 13.9375 7.09933 13.9375 6.05633C13.9375 5.01332 13.5227 4.01303 12.7842 3.27551C12.0458 2.53799 11.0443 2.12366 10 2.12366C8.95571 2.12366 7.95419 2.53799 7.21577 3.27551C6.47734 4.01303 6.0625 5.01332 6.0625 6.05633C6.0625 7.09933 6.47734 8.09962 7.21577 8.83714C7.95419 9.57466 8.95571 9.98899 10 9.98899ZM11.125 11.3654C11.1281 11.1578 11.0501 10.9572 10.9074 10.8061C10.7648 10.655 10.5688 10.5655 10.3611 10.5564C10.2408 10.5528 10.1204 10.5509 10 10.5508C5.66875 10.5508 2.125 12.798 2.125 15.0453C2.125 15.7903 2.42132 16.5048 2.94876 17.0316C3.47621 17.5584 4.19158 17.8543 4.9375 17.8543H7.46875C7.69253 17.8543 7.90714 17.7655 8.06537 17.6075C8.22361 17.4495 8.3125 17.2351 8.3125 17.0116C8.3125 16.7881 8.22361 16.5738 8.06537 16.4157C7.90714 16.2577 7.69253 16.1689 7.46875 16.1689H4.9375C4.63913 16.1689 4.35298 16.0505 4.142 15.8398C3.93103 15.6291 3.8125 15.3433 3.8125 15.0453C3.8125 14.8161 4.06 14.1363 5.2975 13.4059C6.44275 12.7306 8.11 12.2362 10 12.2362C10.0652 12.2362 10.1316 12.2362 10.1969 12.2385C10.6941 12.2475 11.125 11.8621 11.125 11.3654ZM15.1638 11.7104C15.652 11.825 16.0367 12.2093 16.1526 12.6969L12.9767 15.8678C12.7188 16.1258 12.3841 16.2934 12.0228 16.3453L11.4265 16.4296L11.5109 15.8341C11.5629 15.4732 11.7306 15.1388 11.989 14.8812L15.1638 11.7104ZM14.1704 17.0588L17.6219 13.6127C17.7022 13.5326 17.7658 13.4375 17.8093 13.3328C17.8527 13.2281 17.875 13.1159 17.875 13.0025C17.8747 12.2034 17.5567 11.4371 16.9909 10.872C16.4252 10.3069 15.6579 9.98929 14.8577 9.98899C14.7444 9.98874 14.632 10.0108 14.5272 10.054C14.4224 10.0972 14.3271 10.1607 14.2469 10.2407L10.7954 13.6891C10.2792 14.2049 9.9445 14.8739 9.84138 15.5959L9.65013 16.933C9.62555 17.1055 9.64149 17.2813 9.69667 17.4466C9.75185 17.6119 9.84476 17.7621 9.96806 17.8854C10.0914 18.0086 10.2417 18.1016 10.4071 18.1568C10.5726 18.2121 10.7486 18.2282 10.9214 18.2038L12.2613 18.0128C12.9841 17.9098 13.6539 17.5754 14.1704 17.0599V17.0588Z" fill="#FE912B"/>
</svg>
