<svg viewBox="0 0 36 36" fill="none" xmlns="http://www.w3.org/2000/svg">
    <g clip-path="url(#clip0_9_56)">
        <path d="M27.66 15.61L18 6L8.33996 15.61C8.22599 15.6968 8.13199 15.8071 8.06434 15.9333C7.99668 16.0596 7.95695 16.1989 7.94783 16.3419C7.93871 16.4849 7.96041 16.6281 8.01147 16.762C8.06252 16.8958 8.14174 17.0172 8.24376 17.1177C8.34578 17.2183 8.46822 17.2958 8.60278 17.3449C8.73735 17.3941 8.8809 17.4137 9.02372 17.4025C9.16654 17.3914 9.3053 17.3497 9.4306 17.2802C9.55589 17.2108 9.66481 17.1152 9.74996 17L17 9.81V28.94C17 29.2052 17.1053 29.4596 17.2929 29.6471C17.4804 29.8346 17.7347 29.94 18 29.94C18.2652 29.94 18.5195 29.8346 18.7071 29.6471C18.8946 29.4596 19 29.2052 19 28.94V9.81L26.25 17C26.4383 17.187 26.6931 17.2915 26.9585 17.2906C27.2239 17.2896 27.478 17.1833 27.665 16.995C27.8519 16.8067 27.9565 16.5518 27.9555 16.2865C27.9546 16.0211 27.8483 15.767 27.66 15.58V15.61Z" fill="black"/>
    </g>
</svg>
