<svg viewBox="0 0 149 58" fill="none" xmlns="http://www.w3.org/2000/svg">
<path d="M18.1164 2.0541C16.9437 2.64166 15.9664 3.38591 15.1976 4.40436C14.1552 5.7884 13.608 7.39442 13.5689 9.09183C13.4777 12.1211 13.4907 15.1503 13.5689 18.1665C13.6471 21.7571 13.8556 25.3478 13.9337 28.9385C14.0249 33.2343 14.0901 37.5431 14.0771 41.8388C14.0771 44.398 13.8816 46.9572 13.1519 49.438C12.1747 52.7545 10.0769 55.1831 6.96269 56.6063C5.59454 57.2331 4.07003 57.6378 2.5325 57.1547C1.98524 56.985 1.45101 56.7239 0.981928 56.3974C-0.0344106 55.6793 -0.29501 54.4519 0.356489 53.3943C1.30768 51.8405 3.27521 50.7176 5.43818 52.1931C6.51967 52.9243 6.87148 54.0602 6.46755 55.4834C6.97572 55.379 8.05721 54.6347 8.72174 53.9688C10.2593 52.4281 10.9238 50.4957 11.015 48.3935C11.2235 43.8627 11.2886 39.3188 11.028 34.7881C10.7153 29.2258 10.4417 23.6635 10.4547 18.0881C10.4547 15.0458 10.5459 12.0035 11.1974 9.00043C11.9662 5.47504 14.038 2.9028 17.1391 1.21845C18.5724 0.435025 20.2012 0.0302571 21.856 0.435025C22.5075 0.591709 23.1459 0.931192 23.6932 1.3229C24.5923 1.97575 24.7747 3.00726 24.3317 4.01265C23.3674 6.19317 20.4357 6.76768 18.7418 5.09638C17.8688 4.23462 17.8297 3.20311 18.1424 2.04104L18.1164 2.0541Z" fill="#ECA158"/>
<path d="M97.7034 26.993H95.2799C94.5632 24.0944 93.8596 21.2218 93.156 18.3623C93.1039 18.3623 93.0517 18.3623 92.9866 18.3493C92.283 21.2088 91.5794 24.0813 90.8627 26.993H88.4522C87.2143 22.632 85.9765 18.284 84.7256 13.8838H87.4228C88.1655 16.7171 88.9212 19.6028 89.69 22.5928C89.7682 22.41 89.8073 22.3186 89.8333 22.2142C90.4979 19.6028 91.1624 16.9913 91.8139 14.3799C91.9051 14.0013 92.0354 13.8315 92.4654 13.8707C93.0517 13.9229 93.6511 13.8707 94.3026 13.8707C95.0323 16.7041 95.788 19.6028 96.5307 22.4884C96.5568 22.4884 96.5829 22.4884 96.6089 22.4884C96.7653 21.8094 96.9216 21.1304 97.078 20.4515C97.5471 18.3754 98.0162 16.2993 98.4592 14.2102C98.5243 13.9099 98.6286 13.8446 98.9283 13.8446C99.671 13.8707 100.427 13.8446 101.248 13.8446C100.062 18.2056 98.8892 22.5406 97.6774 26.9539L97.7034 26.993Z" fill="black"/>
<path d="M33.4005 18.4668C32.8923 19.3808 32.3841 20.2948 31.8759 21.2088C31.3678 22.1097 30.8726 23.0106 30.3123 24.003C29.2439 22.2664 28.2145 20.569 27.1852 18.8716C27.1591 18.8716 27.133 18.8846 27.0939 18.8977V27.0061H24.501V13.8968C25.0613 13.8968 25.6346 13.9752 26.1688 13.8707C26.8464 13.7401 27.12 14.0405 27.4067 14.5758C28.2276 16.0512 29.1136 17.5006 29.9736 18.963C30.0517 19.0935 30.1299 19.2241 30.2472 19.4069C30.4817 18.9891 30.7032 18.6104 30.9248 18.2318C31.6935 16.8608 32.4623 15.5028 33.2311 14.1319C33.3614 13.8968 33.4917 13.8315 33.7783 13.8446C34.5471 13.8968 35.3159 13.8577 36.1107 13.8577V26.98H33.5308V18.4929C33.5308 18.4929 33.4526 18.4668 33.4135 18.4668H33.4005Z" fill="black"/>
<path d="M118.578 20.2817C118.591 24.3033 115.659 27.2803 111.607 27.2542C108.088 27.2281 105.17 24.5905 105.157 20.7648C105.157 16.7172 108.102 13.6488 112.024 13.6488C115.854 13.6488 118.565 16.3907 118.578 20.2948V20.2817ZM111.971 24.7603C113.913 24.7603 115.268 23.7288 115.646 21.8094C115.789 21.0651 115.789 20.2817 115.711 19.5244C115.49 17.5789 114.056 16.2471 112.128 16.0774C110.291 15.9076 108.753 16.9783 108.154 18.8455C108.062 19.1458 107.997 19.4461 107.945 19.7594C107.476 22.5406 109.261 24.7472 111.971 24.7472V24.7603Z" fill="black"/>
<path d="M50.144 41.8127C50.2613 45.7036 47.0429 48.7851 43.1469 48.6807C39.6027 48.5893 36.8273 45.8473 36.8404 42.2566C36.8664 37.8041 40.1891 35.1797 43.6811 35.1927C46.9126 35.2058 50.2482 37.543 50.131 41.8127H50.144ZM39.3812 42.0085C39.4724 44.4241 40.8666 46.0692 43.2511 46.3043C44.945 46.474 46.5477 45.7428 47.2122 43.8757C47.6683 42.6091 47.6422 41.3165 47.1601 40.05C46.5477 38.4178 45.2187 37.5169 43.4726 37.5169C41.7527 37.5169 40.4497 38.4048 39.8503 40.05C39.6288 40.6767 39.5376 41.3426 39.3812 41.9955V42.0085Z" fill="black"/>
<path d="M118.265 41.7736C118.395 45.7298 115.138 48.7591 111.307 48.6807C107.737 48.6024 104.935 45.8474 104.961 42.2436C105 37.7651 108.349 35.1928 111.776 35.1928C115.059 35.1928 118.369 37.5561 118.265 41.7736ZM107.606 42.0347C107.606 44.4241 109.013 46.0693 111.398 46.3044C113.105 46.4741 114.695 45.7298 115.346 43.8627C115.789 42.5962 115.776 41.3035 115.294 40.037C114.734 38.6007 113.704 37.7128 112.167 37.53C110.616 37.3472 109.313 37.8303 108.427 39.1752C107.854 40.037 107.619 41.0032 107.619 42.0216L107.606 42.0347Z" fill="black"/>
<path d="M123.946 48.4457V47.5317C123.946 43.6798 123.946 39.8411 123.946 35.9893C123.946 35.5323 124.089 35.4539 124.519 35.4017C125.509 35.2711 126.057 35.6759 126.552 36.5246C127.881 38.7573 129.314 40.9379 130.721 43.1315C130.813 43.2751 130.904 43.3926 131.112 43.497C131.112 43.3273 131.112 43.1706 131.112 43.0009C131.112 40.6245 131.112 38.2612 131.112 35.8848C131.112 35.5062 131.217 35.3886 131.581 35.4017C132.233 35.4278 132.884 35.4017 133.523 35.4017C133.523 35.8587 133.523 36.2504 133.523 36.6421C133.523 40.3634 133.523 44.0846 133.523 47.8059C133.523 48.4326 133.523 48.3543 132.923 48.4457C131.92 48.5893 131.36 48.1845 130.839 47.3358C129.562 45.2206 128.154 43.1706 126.812 41.0946C126.708 40.9379 126.604 40.7942 126.395 40.6506C126.395 40.8073 126.369 40.964 126.369 41.1207C126.369 43.3795 126.356 45.6384 126.369 47.9103C126.369 48.3543 126.239 48.4718 125.809 48.4457C125.223 48.4065 124.623 48.4457 123.972 48.4457H123.946Z" fill="black"/>
<path d="M133.418 27.0583C132.598 27.0583 131.751 27.0322 130.917 27.0583C130.604 27.0583 130.448 27.0061 130.317 26.7058C129.679 25.2042 129.001 23.7288 128.363 22.2272C128.259 21.9791 128.128 21.8747 127.842 21.9008C127.451 21.9269 127.06 21.9008 126.617 21.9008V26.9539H124.011V13.7271C125.379 13.701 126.76 13.6096 128.128 13.6749C128.962 13.714 129.809 13.8968 130.591 14.1841C131.985 14.6933 132.637 15.8032 132.767 17.2525C132.923 19.0152 132.181 20.3078 130.643 21.2218C131.581 23.1673 132.506 25.0998 133.431 27.0322L133.418 27.0583ZM126.604 15.9337C126.604 17.2525 126.604 18.3885 126.604 19.5375C126.604 19.6289 126.747 19.7986 126.838 19.8117C127.633 19.8639 128.441 19.9422 129.197 19.6028C129.991 19.2502 130.317 18.5713 130.226 17.5397C130.161 16.7955 129.77 16.3124 128.923 16.1557C128.18 16.0251 127.425 16.0121 126.591 15.9337H126.604Z" fill="black"/>
<path d="M79.8525 13.8838V27.0191H77.3377V21.4699H72.7381V27.0061H70.1582V13.8707H72.7121V19.0413H77.3247V13.8707H79.8655L79.8525 13.8838Z" fill="black"/>
<path d="M138.631 13.8708H141.094V19.1719L141.198 19.1981C141.302 19.0675 141.406 18.95 141.497 18.8194C142.618 17.2656 143.739 15.7249 144.846 14.1581C145.003 13.9361 145.159 13.8577 145.419 13.8708C146.279 13.8969 147.139 13.8708 148.052 13.8708C147.986 13.9622 147.934 14.0797 147.856 14.1711C146.762 15.6074 145.667 17.0437 144.573 18.4669C144.403 18.6758 144.377 18.8455 144.507 19.0936C145.823 21.692 147.126 24.2903 148.482 26.98H145.367C144.781 24.9301 143.452 23.1674 142.553 21.1174C142.071 21.7572 141.628 22.3056 141.224 22.8801C141.133 23.0107 141.133 23.2066 141.133 23.3633C141.133 24.5645 141.133 25.7788 141.133 27.0062H138.644V13.8708H138.631Z" fill="black"/>
<path d="M69.4935 35.4148C69.4935 35.6759 69.4935 35.8587 69.4935 36.0415C69.4935 38.6529 69.4935 41.2513 69.4935 43.8627C69.4935 45.6254 70.9008 46.7352 72.6207 46.3566C73.624 46.1346 74.3407 45.1684 74.3537 43.9019C74.3798 41.3166 74.3928 38.7182 74.4058 36.1329C74.4058 35.4148 74.4058 35.4148 75.1225 35.4279C75.5264 35.4279 75.9434 35.4279 76.3473 35.4279C76.9727 35.4279 76.9727 35.4279 76.9727 36.0807C76.9727 38.3135 76.9727 40.5462 76.9727 42.7659C76.9727 43.1837 76.9727 43.6146 76.9467 44.0324C76.8424 46.3435 75.3309 48.1715 73.0637 48.5763C71.7086 48.8244 70.3796 48.6677 69.1417 47.9887C67.4739 47.0617 66.8745 45.534 66.8484 43.7452C66.8093 41.1077 66.8484 38.4701 66.8484 35.8326C66.8484 35.6237 66.8093 35.4148 67.1351 35.4148C67.9039 35.4148 68.6596 35.4148 69.5065 35.4148H69.4935Z" fill="black"/>
<path d="M49.6881 26.993C49.4145 26.1443 49.1409 25.3087 48.8542 24.4861C48.8151 24.3555 48.6457 24.1858 48.5415 24.1858C47.1473 24.1596 45.7531 24.1727 44.3458 24.1727C44.0722 25.0475 43.7986 25.8832 43.538 26.7449C43.4598 27.0191 43.3295 27.1105 43.0428 27.0844C42.261 27.0322 41.4923 27.0061 40.6714 26.9669C42.222 22.6189 43.7595 18.284 45.3101 13.9099H47.903C49.4797 18.2579 51.0563 22.6059 52.6459 26.993H49.7142H49.6881ZM47.9942 21.7833C47.4991 20.2817 47.03 18.8193 46.5219 17.2525C46.0267 18.8324 45.5707 20.2948 45.1016 21.7833H47.9942Z" fill="black"/>
<path d="M147.634 38.9402C146.761 37.9217 145.68 37.5953 144.52 37.4908C144.051 37.4517 143.556 37.4908 143.087 37.6083C142.539 37.7259 142.096 38.0262 142.044 38.666C141.979 39.4102 142.214 39.9194 142.904 40.1675C143.621 40.4156 144.39 40.5201 145.132 40.7159C145.823 40.8987 146.54 41.0554 147.178 41.3427C148.624 41.9955 149.12 43.3273 148.976 44.8419C148.768 47.1791 146.983 48.3804 144.846 48.6285C143.204 48.8243 141.601 48.5632 140.09 47.845C139.751 47.6884 139.595 47.4795 139.634 47.0877C139.686 46.4088 139.66 45.7429 139.673 45.0639C139.673 44.8942 139.699 44.7375 139.725 44.4372C140.363 45.3381 141.106 45.9257 142.057 46.1999C143.1 46.5002 144.155 46.5393 145.211 46.239C146.227 45.9518 146.709 45.2206 146.553 44.3327C146.462 43.8365 146.149 43.5232 145.719 43.4057C145.093 43.2229 144.442 43.0923 143.803 43.0009C142.917 42.8703 142.044 42.7006 141.263 42.2305C140.246 41.6299 139.738 40.729 139.673 39.5669C139.556 36.9685 141.132 35.2973 143.738 35.2189C145.015 35.1797 146.227 35.3364 147.387 35.8979C147.699 36.0415 147.83 36.2374 147.804 36.5899C147.738 37.3341 147.699 38.0784 147.647 38.9402H147.634Z" fill="black"/>
<path d="M30.7032 38.9402C29.8433 37.9217 28.7618 37.5823 27.5891 37.4909C27.0679 37.4517 26.5206 37.517 26.0255 37.6475C25.5173 37.7781 25.1394 38.1176 25.1004 38.7052C25.0482 39.3188 25.2567 39.8803 25.8431 40.0892C26.5988 40.3634 27.4067 40.494 28.1885 40.6898C28.7878 40.8465 29.4133 40.964 29.9866 41.1991C31.7326 41.9303 32.2668 43.3274 32.0062 45.0639C31.7196 46.9572 30.4557 48.1584 28.4751 48.524C26.6379 48.8635 24.8658 48.6154 23.1589 47.832C22.8201 47.6753 22.6637 47.4795 22.6898 47.0747C22.7419 46.2391 22.7419 45.4034 22.8201 44.5417C23.5237 45.4556 24.3837 46.0432 25.4912 46.2782C26.5076 46.4872 27.5109 46.5002 28.5012 46.1216C29.4133 45.7821 29.8172 45.0248 29.5827 44.2022C29.4263 43.6407 28.9963 43.3796 28.5012 43.2751C27.7585 43.1054 26.9897 43.014 26.247 42.8834C26.0255 42.8442 25.817 42.8051 25.6085 42.7528C23.5628 42.2044 22.6768 41.0032 22.7159 38.8357C22.7419 37.1514 23.9537 35.7282 25.7909 35.3365C27.3936 34.997 28.9703 35.1667 30.4687 35.8848C30.7814 36.0415 30.8987 36.2243 30.8726 36.5769C30.8075 37.3211 30.7814 38.0654 30.7293 38.9141L30.7032 38.9402Z" fill="black"/>
<path d="M65.0504 13.8576V16.1556H61.819V27.006H59.0566V16.2209H55.8252V13.8706C58.9003 13.9229 61.9363 13.9359 65.0374 13.8706L65.0504 13.8576Z" fill="black"/>
<path d="M91.1234 35.3756V37.5561C91.0192 37.5692 90.941 37.6084 90.8498 37.5953C90.0941 37.5692 89.3514 37.53 88.5956 37.517C87.8659 37.517 87.8659 37.517 87.8659 38.2221C87.8659 41.3949 87.8659 44.5678 87.8659 47.7276C87.8659 48.5632 87.892 48.4196 87.1623 48.4326C86.6932 48.4326 86.2242 48.4065 85.7551 48.4326C85.3511 48.4588 85.2599 48.3021 85.2599 47.9234C85.2599 44.7636 85.2599 41.6169 85.2599 38.4571C85.2599 38.3134 85.2469 38.1698 85.2599 38.0393C85.3121 37.6214 85.1296 37.4909 84.7257 37.5039C83.8266 37.5431 82.9276 37.5431 82.0024 37.5692V35.3626H91.1104L91.1234 35.3756Z" fill="black"/>
<path d="M58.2881 46.1607C59.3045 46.1607 60.2557 46.1738 61.1938 46.1607C61.5717 46.1607 61.7411 46.239 61.702 46.6438C61.6629 47.1139 61.6759 47.5839 61.689 48.054C61.689 48.3935 61.5587 48.4718 61.2459 48.4718C59.552 48.4587 57.8581 48.4457 56.1642 48.4718C55.7864 48.4718 55.6821 48.3412 55.6821 47.9887C55.6821 45.8996 55.6821 43.8104 55.6821 41.7213C55.6821 39.8019 55.6821 37.8956 55.6821 35.9762C55.6821 35.5584 55.7733 35.3756 56.2294 35.4148C56.7636 35.4539 57.2978 35.4409 57.8321 35.4148C58.2099 35.3887 58.3012 35.5323 58.3012 35.8979C58.3012 39.1099 58.3012 42.335 58.3012 45.547C58.3012 45.7298 58.3012 45.9126 58.3012 46.1607H58.2881Z" fill="black"/>
<path d="M96.5566 41.891C96.5566 39.8933 96.5566 37.9086 96.5566 35.9109C96.5566 35.5192 96.6739 35.3886 97.0648 35.4147C97.599 35.4409 98.1333 35.4539 98.6675 35.4147C99.0584 35.3886 99.1757 35.5061 99.1757 35.9109C99.1626 37.9609 99.1757 40.0239 99.1757 42.0738C99.1757 44.0324 99.1757 46.004 99.1757 47.9625C99.1757 48.3543 99.0584 48.4848 98.6675 48.4587C98.1333 48.4326 97.599 48.4326 97.0648 48.4587C96.6739 48.4848 96.5566 48.3543 96.5566 47.9625C96.5697 45.9387 96.5566 43.9149 96.5566 41.891Z" fill="black"/>
</svg>
