<svg viewBox="0 0 18 10" fill="none" xmlns="http://www.w3.org/2000/svg">
<path d="M0.0499998 1.30995C0.00749224 1.18301 -0.00909324 1.04882 0.0012267 0.915345C0.0115467 0.78187 0.048562 0.651826 0.110078 0.532923C0.171594 0.41402 0.256358 0.30868 0.359344 0.223148C0.462331 0.137615 0.581443 0.0736317 0.709618 0.0349915C0.837794 -0.00364861 0.972423 -0.0161588 1.10552 -0.00179787C1.23862 0.0125631 1.36749 0.0535028 1.48447 0.118594C1.60145 0.183686 1.70418 0.271605 1.78655 0.377137C1.86892 0.482668 1.92926 0.603665 1.964 0.732952C4.05 7.71895 13.946 7.71995 16.034 0.736953C16.0714 0.611015 16.1333 0.493682 16.2161 0.391653C16.2988 0.289625 16.4009 0.204898 16.5164 0.142311C16.6319 0.0797247 16.7586 0.0405037 16.8893 0.0268872C17.02 0.0132708 17.1521 0.0255256 17.278 0.0629523C17.4039 0.100379 17.5213 0.162245 17.6233 0.245017C17.7253 0.327789 17.8101 0.429847 17.8726 0.545363C17.9352 0.660879 17.9744 0.787591 17.9881 0.918265C18.0017 1.04894 17.9894 1.18102 17.952 1.30695C17.5882 2.55814 16.9711 3.7212 16.139 4.72395L17.414 5.99995C17.5962 6.18855 17.697 6.44116 17.6947 6.70335C17.6924 6.96555 17.5872 7.21636 17.4018 7.40177C17.2164 7.58718 16.9656 7.69235 16.7034 7.69463C16.4412 7.69691 16.1886 7.59611 16 7.41395L14.689 6.10295C13.9815 6.63647 13.1999 7.06396 12.369 7.37195L12.726 8.70695C12.7641 8.835 12.7761 8.96939 12.7614 9.10217C12.7467 9.23495 12.7055 9.36344 12.6403 9.48004C12.5751 9.59665 12.4872 9.69901 12.3818 9.78108C12.2764 9.86315 12.1556 9.92326 12.0266 9.95788C11.8976 9.99249 11.7629 10.0009 11.6306 9.98261C11.4982 9.96431 11.3709 9.91969 11.2561 9.85137C11.1413 9.78305 11.0413 9.69242 10.9621 9.58483C10.883 9.47724 10.8261 9.35487 10.795 9.22495L10.431 7.86795C9.484 8.00795 8.516 8.00795 7.569 7.86795L7.205 9.22495C7.17388 9.35487 7.11705 9.47724 7.03785 9.58483C6.95866 9.69242 6.85871 9.78305 6.74391 9.85137C6.6291 9.91969 6.50177 9.96431 6.36944 9.98261C6.2371 10.0009 6.10244 9.99249 5.97341 9.95788C5.84438 9.92326 5.72359 9.86315 5.61818 9.78108C5.51277 9.69901 5.42487 9.59665 5.35967 9.48004C5.29447 9.36344 5.2533 9.23495 5.23859 9.10217C5.22388 8.96939 5.23592 8.835 5.274 8.70695L5.631 7.37195C4.80005 7.06363 4.0185 6.63579 3.311 6.10195L2.001 7.41395C1.81349 7.60173 1.55907 7.70732 1.29371 7.70751C1.02834 7.7077 0.773773 7.60246 0.586 7.41495C0.398227 7.22744 0.292631 6.97302 0.292444 6.70766C0.292256 6.4423 0.397492 6.18773 0.585 5.99995L1.86 4.72495C1.076 3.78895 0.45 2.65095 0.0479999 1.31095L0.0499998 1.30995Z" fill="black"/>
</svg>
