<svg viewBox="116.263 21.315 73.895 72.269" fill="none" xmlns="http://www.w3.org/2000/svg">
  <defs></defs>
  <path d="M 159.219 29.713 C 158.011 30.322 157.005 31.094 156.213 32.149 C 155.14 33.583 154.576 35.247 154.536 37.006 C 154.442 40.145 154.455 43.284 154.536 46.409 C 154.616 50.13 154.831 53.851 154.912 57.571 C 155.006 62.022 155.073 66.487 155.059 70.939 C 155.059 73.59 154.858 76.242 154.107 78.813 C 153.1 82.249 150.94 84.766 147.733 86.24 C 146.324 86.89 144.754 87.309 143.171 86.809 C 142.607 86.633 142.057 86.362 141.574 86.024 C 140.528 85.28 140.259 84.008 140.93 82.912 C 141.909 81.302 143.936 80.138 146.163 81.667 C 147.277 82.425 147.639 83.602 147.223 85.077 C 147.746 84.969 148.86 84.197 149.545 83.508 C 151.128 81.911 151.812 79.908 151.906 77.73 C 152.121 73.036 152.188 68.327 151.92 63.632 C 151.598 57.868 151.315 52.105 151.329 46.328 C 151.329 43.175 151.423 40.023 152.094 36.911 C 152.886 33.258 155.019 30.592 158.213 28.847 C 159.688 28.035 161.366 27.616 163.07 28.035 C 163.741 28.198 164.398 28.549 164.961 28.956 C 165.887 29.632 166.075 30.701 165.619 31.743 C 164.626 34.002 161.607 34.597 159.863 32.865 C 158.964 31.972 158.924 30.904 159.245 29.699 L 159.219 29.713 Z" fill="#FE912A" style="transform-origin: 153.21px 0.038px;"></path>
</svg>