<svg viewBox="0 0 14 16" fill="none" xmlns="http://www.w3.org/2000/svg">
<path d="M13 15.8871H2.875C2.17881 15.8871 1.51113 15.6109 1.01884 15.1192C0.526562 14.6275 0.25 13.9607 0.25 13.2653V3.15276C0.25 2.55675 0.487053 1.98516 0.90901 1.56372C1.33097 1.14228 1.90326 0.905518 2.5 0.905518H13C13.1989 0.905518 13.3897 0.984438 13.5303 1.12492C13.671 1.2654 13.75 1.45593 13.75 1.6546V15.138C13.75 15.3367 13.671 15.5272 13.5303 15.6677C13.3897 15.8082 13.1989 15.8871 13 15.8871ZM12.25 14.389V12.1417H2.875C2.57663 12.1417 2.29048 12.2601 2.0795 12.4708C1.86853 12.6815 1.75 12.9673 1.75 13.2653C1.75 13.5633 1.86853 13.8491 2.0795 14.0599C2.29048 14.2706 2.57663 14.389 2.875 14.389H12.25Z" fill="#FE912B"/>
</svg>
