<svg viewBox="0 0 18 12" fill="none" xmlns="http://www.w3.org/2000/svg">
<path d="M17.6484 5.65758C17.6224 5.60062 17.0065 4.23305 15.6459 2.8725C13.8255 1.05492 11.5312 0.09375 9 0.09375C6.46875 0.09375 4.17445 1.05492 2.35617 2.8725C0.995624 4.23305 0.379687 5.60062 0.351562 5.65758C0.303927 5.76558 0.279325 5.88232 0.279325 6.00035C0.279325 6.11839 0.303927 6.23513 0.351562 6.34313C0.377578 6.40078 0.993515 7.76766 2.35477 9.1282C4.17445 10.9458 6.46875 11.9062 9 11.9062C11.5312 11.9062 13.8255 10.9458 15.6431 9.1282C17.0044 7.76766 17.6203 6.40078 17.6463 6.34313C17.6943 6.23527 17.7193 6.11861 17.7196 6.00057C17.72 5.88254 17.6957 5.76572 17.6484 5.65758ZM14.4098 7.97789C12.9002 9.4643 11.0805 10.2188 9 10.2188C6.91945 10.2188 5.09977 9.4643 3.59227 7.97719C2.9991 7.39021 2.48884 6.72501 2.07562 6C2.48897 5.27529 2.99921 4.61033 3.59227 4.02352C5.10047 2.5357 6.91945 1.78125 9 1.78125C11.0805 1.78125 12.8995 2.5357 14.4077 4.02352C15.0009 4.61027 15.5111 5.27524 15.9244 6C15.5111 6.72496 15.0008 7.39016 14.4077 7.97719L14.4098 7.97789ZM9 2.90625C8.38811 2.90625 7.78997 3.0877 7.2812 3.42764C6.77244 3.76759 6.37591 4.25076 6.14175 4.81607C5.90759 5.38138 5.84632 6.00343 5.9657 6.60356C6.08507 7.20369 6.37972 7.75494 6.81239 8.18761C7.24506 8.62028 7.79631 8.91493 8.39644 9.0343C8.99657 9.15368 9.61862 9.09241 10.1839 8.85825C10.7492 8.62409 11.2324 8.22756 11.5724 7.71879C11.9123 7.21003 12.0937 6.61189 12.0937 6C12.0928 5.17977 11.7666 4.39341 11.1866 3.81342C10.6066 3.23343 9.82023 2.90718 9 2.90625ZM9 7.40625C8.72187 7.40625 8.44999 7.32378 8.21873 7.16925C7.98747 7.01473 7.80723 6.79511 7.70079 6.53815C7.59436 6.28119 7.56651 5.99844 7.62077 5.72565C7.67503 5.45287 7.80896 5.2023 8.00563 5.00563C8.2023 4.80896 8.45287 4.67503 8.72565 4.62077C8.99844 4.56651 9.28119 4.59436 9.53815 4.70079C9.79511 4.80723 10.0147 4.98747 10.1693 5.21873C10.3238 5.44999 10.4062 5.72187 10.4062 6C10.4062 6.37296 10.2581 6.73065 9.99437 6.99437C9.73065 7.25809 9.37296 7.40625 9 7.40625Z" fill="black"/>
</svg>
