<svg viewBox="0 0 16 17" fill="none" xmlns="http://www.w3.org/2000/svg">
<path fill-rule="evenodd" clip-rule="evenodd" d="M13.4207 2.64272C13.0456 2.26823 12.537 2.05786 12.0067 2.05786C11.4764 2.05786 10.9677 2.26823 10.5927 2.64272L10.1214 3.11414L13.4214 6.41009L13.892 5.93933C14.0778 5.75384 14.2251 5.53362 14.3256 5.29124C14.4262 5.04886 14.4779 4.78908 14.4779 4.52673C14.4779 4.26438 14.4262 4.0046 14.3256 3.76223C14.2251 3.51985 14.0778 3.29963 13.892 3.11414L13.4207 2.64272ZM12.478 7.3516L9.17802 4.05565L3.11802 10.1089C2.98541 10.2413 2.89277 10.4084 2.85068 10.591L2.16468 13.5573C2.13912 13.6674 2.14206 13.7822 2.1732 13.8909C2.20435 13.9996 2.26269 14.0986 2.34272 14.1785C2.42276 14.2584 2.52185 14.3167 2.63066 14.3478C2.73947 14.3789 2.85442 14.3819 2.96468 14.3563L5.93535 13.6718C6.11789 13.6297 6.2849 13.5372 6.41735 13.4048L12.478 7.3516Z" fill="#FE912B"/>
</svg>
