<svg viewBox="0 0 17 16" fill="none" xmlns="http://www.w3.org/2000/svg">
<path fill-rule="evenodd" clip-rule="evenodd" d="M4.6999 0.372528C4.44795 0.372528 4.20631 0.472494 4.02815 0.650435C3.84999 0.828376 3.7499 1.06972 3.7499 1.32136V2.2702H2.7999C2.29599 2.2702 1.81272 2.47013 1.4564 2.82601C1.10008 3.18189 0.899902 3.66457 0.899902 4.16787V13.6562C0.899902 14.1595 1.10008 14.6422 1.4564 14.9981C1.81272 15.3539 2.29599 15.5539 2.7999 15.5539H14.1999C14.7038 15.5539 15.1871 15.3539 15.5434 14.9981C15.8997 14.6422 16.0999 14.1595 16.0999 13.6562V4.16787C16.0999 3.66457 15.8997 3.18189 15.5434 2.82601C15.1871 2.47013 14.7038 2.2702 14.1999 2.2702H13.2499V1.32136C13.2499 1.06972 13.1498 0.828376 12.9717 0.650435C12.7935 0.472494 12.5519 0.372528 12.2999 0.372528C12.0479 0.372528 11.8063 0.472494 11.6282 0.650435C11.45 0.828376 11.3499 1.06972 11.3499 1.32136V2.2702H5.6499V1.32136C5.6499 1.06972 5.54981 0.828376 5.37165 0.650435C5.19349 0.472494 4.95186 0.372528 4.6999 0.372528ZM4.6999 5.1167C4.44795 5.1167 4.20631 5.21667 4.02815 5.39461C3.84999 5.57255 3.7499 5.81389 3.7499 6.06553C3.7499 6.31718 3.84999 6.55852 4.02815 6.73646C4.20631 6.9144 4.44795 7.01437 4.6999 7.01437H12.2999C12.5519 7.01437 12.7935 6.9144 12.9717 6.73646C13.1498 6.55852 13.2499 6.31718 13.2499 6.06553C13.2499 5.81389 13.1498 5.57255 12.9717 5.39461C12.7935 5.21667 12.5519 5.1167 12.2999 5.1167H4.6999Z" fill="#FE912B"/>
</svg>
