<svg viewBox="0 0 315 122" fill="none" xmlns="http://www.w3.org/2000/svg">
    <path d="M38.2996 3.78311C35.8204 5.03303 33.7544 6.61626 32.1292 8.7828C29.9255 11.7271 28.7685 15.1435 28.6859 18.7544C28.4931 25.1984 28.5206 31.6425 28.6859 38.0588C28.8512 45.6972 29.2919 53.3356 29.4572 60.974C29.65 70.1123 29.7877 79.2784 29.7602 88.4168C29.7602 93.8609 29.347 99.305 27.8044 104.582C25.7384 111.638 21.3034 116.804 14.7198 119.831C11.8274 121.165 8.60442 122.026 5.35393 120.998C4.19697 120.637 3.06756 120.081 2.07589 119.387C-0.0727472 117.859 -0.623679 115.248 0.75365 112.999C2.76455 109.693 6.92408 107.304 11.4968 110.443C13.7832 111.999 14.5269 114.415 13.673 117.443C14.7473 117.221 17.0337 115.637 18.4386 114.221C21.689 110.943 23.0939 106.832 23.2867 102.36C23.7275 92.722 23.8652 83.056 23.3143 73.4177C22.6532 61.5851 22.0747 49.7525 22.1022 37.8921C22.1022 31.4203 22.2951 24.9485 23.6724 18.56C25.2976 11.0604 29.6776 5.58855 36.2336 2.00544C39.2638 0.338874 42.7071 -0.522184 46.2055 0.338874C47.5828 0.672187 48.9326 1.39436 50.0896 2.22765C51.9903 3.61645 52.3759 5.81076 51.4394 7.94951C49.4009 12.5881 43.2029 13.8103 39.6219 10.2549C37.7762 8.42171 37.6936 6.2274 38.3547 3.75533L38.2996 3.78311Z" fill="#FE912A"/>
    <path d="M206.554 56.8354H201.43C199.915 50.6691 198.427 44.5584 196.94 38.4754C196.83 38.4754 196.719 38.4754 196.582 38.4476C195.094 44.5306 193.607 50.6413 192.092 56.8354H186.996C184.379 47.5582 181.762 38.3087 179.117 28.9482H184.819C186.389 34.9756 187.987 41.1141 189.612 47.4748C189.778 47.086 189.86 46.8915 189.915 46.6693C191.32 41.1141 192.725 35.5589 194.103 30.0037C194.295 29.1982 194.571 28.8371 195.48 28.9204C196.719 29.0315 197.987 28.9204 199.364 28.9204C200.907 34.9478 202.504 41.1141 204.074 47.2526C204.129 47.2526 204.185 47.2526 204.24 47.2526C204.57 45.8083 204.901 44.3639 205.231 42.9196C206.223 38.5032 207.215 34.0868 208.151 29.6426C208.289 29.0038 208.509 28.8649 209.143 28.8649C210.713 28.9204 212.311 28.8649 214.046 28.8649C211.54 38.1421 209.06 47.3637 206.498 56.752L206.554 56.8354Z" fill="white"/>
    <path d="M70.6112 38.6976C69.5369 40.6419 68.4626 42.5863 67.3882 44.5306C66.3139 46.4471 65.2672 48.3637 64.0826 50.4747C61.8238 46.7804 59.6476 43.1695 57.4715 39.5587C57.4164 39.5587 57.3613 39.5864 57.2786 39.6142V56.8631H51.7969V28.976C52.9814 28.976 54.1934 29.1426 55.3228 28.9204C56.7553 28.6427 57.3337 29.2815 57.9398 30.4203C59.6752 33.559 61.5484 36.6422 63.3664 39.7531C63.5317 40.0309 63.697 40.3086 63.9449 40.6975C64.4408 39.8086 64.909 39.0031 65.3773 38.1976C67.0026 35.2811 68.6278 32.3924 70.2531 29.476C70.5285 28.976 70.804 28.8371 71.41 28.8649C73.0353 28.976 74.6605 28.8927 76.3409 28.8927V56.8076H70.8867V38.7532C70.8867 38.7532 70.7214 38.6976 70.6387 38.6976H70.6112Z" fill="white"/>
    <path d="M250.683 42.5585C250.71 51.1135 244.512 57.4464 235.945 57.3909C228.508 57.3353 222.337 51.7246 222.31 43.5862C222.31 34.9756 228.535 28.4482 236.827 28.4482C244.925 28.4482 250.655 34.2812 250.683 42.5863V42.5585ZM236.716 52.0857C240.821 52.0857 243.686 49.8914 244.485 45.8083C244.788 44.225 244.788 42.5585 244.622 40.9475C244.154 36.8088 241.124 33.9757 237.047 33.6146C233.163 33.2535 229.912 35.5311 228.645 39.5031C228.452 40.142 228.315 40.7808 228.205 41.4474C227.213 47.3637 230.987 52.0579 236.716 52.0579V52.0857Z" fill="white"/>
    <path d="M106.009 88.3612C106.257 96.6385 99.4529 103.194 91.2164 102.971C83.7238 102.777 77.8563 96.944 77.8839 89.3056C77.939 79.834 84.9634 74.251 92.3458 74.2787C99.1774 74.3065 106.229 79.2784 105.981 88.3612H106.009ZM83.2555 88.7778C83.4483 93.9164 86.3958 97.4162 91.4368 97.9162C95.0178 98.2773 98.4061 96.7218 99.811 92.7498C100.775 90.0555 100.72 87.3057 99.7008 84.6114C98.4061 81.1394 95.5963 79.2229 91.9051 79.2229C88.2689 79.2229 85.5143 81.1117 84.2471 84.6114C83.7789 85.9447 83.586 87.3613 83.2555 88.7501V88.7778Z" fill="white"/>
    <path d="M250.023 88.2779C250.298 96.694 243.412 103.138 235.313 102.971C227.765 102.805 221.843 96.944 221.898 89.2778C221.98 79.7506 229.06 74.2787 236.305 74.2787C243.246 74.2787 250.243 79.3062 250.023 88.2779ZM227.49 88.8334C227.49 93.9164 230.465 97.4162 235.506 97.9162C239.114 98.2773 242.475 96.694 243.852 92.722C244.789 90.0278 244.761 87.2779 243.742 84.5837C242.558 81.5283 240.382 79.6395 237.131 79.2507C233.853 78.8618 231.098 79.8895 229.225 82.7504C228.013 84.5837 227.517 86.6391 227.517 88.8056L227.49 88.8334Z" fill="white"/>
    <path d="M262.033 102.471V100.527C262.033 92.3332 262.033 84.167 262.033 75.9731C262.033 75.0009 262.336 74.8343 263.245 74.7232C265.339 74.4454 266.496 75.3065 267.543 77.1119C270.352 81.8616 273.382 86.5002 276.357 91.1666C276.55 91.4721 276.743 91.7221 277.184 91.9443C277.184 91.5832 277.184 91.2499 277.184 90.8888C277.184 85.8336 277.184 80.8061 277.184 75.7509C277.184 74.9454 277.404 74.6954 278.175 74.7232C279.553 74.7787 280.93 74.7232 282.28 74.7232C282.28 75.6953 282.28 76.5286 282.28 77.3619C282.28 85.2781 282.28 93.1942 282.28 101.11C282.28 102.444 282.28 102.277 281.013 102.471C278.892 102.777 277.707 101.916 276.605 100.11C273.906 95.6108 270.931 91.2499 268.093 86.8335C267.873 86.5002 267.653 86.1947 267.212 85.8891C267.212 86.2224 267.157 86.5558 267.157 86.8891C267.157 91.6943 267.129 96.4996 267.157 101.333C267.157 102.277 266.881 102.527 265.972 102.471C264.733 102.388 263.466 102.471 262.088 102.471H262.033Z" fill="white"/>
    <path d="M282.059 56.9743C280.323 56.9743 278.533 56.9187 276.77 56.9743C276.108 56.9743 275.778 56.8631 275.502 56.2243C274.153 53.0301 272.72 49.8914 271.37 46.6971C271.15 46.1694 270.875 45.9472 270.269 46.0027C269.442 46.0583 268.616 46.0027 267.679 46.0027V56.752H262.17V28.6149C265.062 28.5593 267.982 28.3649 270.875 28.5038C272.638 28.5871 274.428 28.976 276.081 29.5871C279.028 30.6703 280.406 33.0313 280.681 36.1144C281.012 39.8642 279.442 42.614 276.191 44.5584C278.174 48.697 280.13 52.8078 282.086 56.9187L282.059 56.9743ZM267.652 33.3091C267.652 36.1144 267.652 38.531 267.652 40.9752C267.652 41.1697 267.955 41.5308 268.148 41.5585C269.828 41.6696 271.536 41.8363 273.133 41.1141C274.814 40.3642 275.502 38.9198 275.31 36.7255C275.172 35.1423 274.345 34.1146 272.555 33.7812C270.985 33.5035 269.387 33.4757 267.624 33.3091H267.652Z" fill="white"/>
    <path d="M168.816 28.9482V56.8909H163.499V45.0861H153.776V56.8631H148.321V28.9204H153.72V39.9197H163.472V28.9204H168.843L168.816 28.9482Z" fill="white"/>
    <path d="M293.077 28.9204H298.283V40.1975L298.504 40.2531C298.724 39.9753 298.945 39.7253 299.137 39.4476C301.506 36.1422 303.875 32.8646 306.217 29.5315C306.547 29.0593 306.878 28.8927 307.429 28.9204C309.247 28.976 311.065 28.9204 312.993 28.9204C312.856 29.1149 312.745 29.3649 312.58 29.5593C310.266 32.6146 307.952 35.67 305.638 38.6976C305.28 39.142 305.225 39.5031 305.501 40.0309C308.283 45.5583 311.038 51.0857 313.902 56.8076H307.319C306.079 52.4468 303.269 48.697 301.369 44.3361C300.349 45.6972 299.413 46.8638 298.559 48.0859C298.366 48.3637 298.366 48.7803 298.366 49.1136C298.366 51.669 298.366 54.2522 298.366 56.8631H293.105V28.9204H293.077Z" fill="white"/>
    <path d="M146.916 74.7509C146.916 75.3065 146.916 75.6953 146.916 76.0842C146.916 81.6394 146.916 87.1668 146.916 92.722C146.916 96.4718 149.891 98.8328 153.527 98.0273C155.648 97.5551 157.163 95.4997 157.191 92.8054C157.246 87.3057 157.273 81.7783 157.301 76.2786C157.301 74.7509 157.301 74.7509 158.816 74.7787C159.67 74.7787 160.551 74.7787 161.405 74.7787C162.728 74.7787 162.728 74.7787 162.728 76.1675C162.728 80.9172 162.728 85.6669 162.728 90.3888C162.728 91.2777 162.728 92.1943 162.672 93.0831C162.452 97.9995 159.257 101.888 154.464 102.749C151.599 103.277 148.789 102.944 146.172 101.499C142.646 99.5272 141.379 96.2774 141.324 92.4721C141.241 86.8613 141.324 81.2505 141.324 75.6398C141.324 75.1953 141.241 74.7509 141.93 74.7509C143.555 74.7509 145.153 74.7509 146.943 74.7509H146.916Z" fill="white"/>
    <path d="M105.045 56.8354C104.466 55.0299 103.888 53.2523 103.282 51.5024C103.199 51.2246 102.841 50.8635 102.621 50.8635C99.6731 50.808 96.7256 50.8357 93.7506 50.8357C93.1721 52.6967 92.5936 54.4744 92.0427 56.3076C91.8774 56.8909 91.6019 57.0853 90.9959 57.0298C89.3431 56.9187 87.7179 56.8631 85.9824 56.7798C89.2605 47.5304 92.511 38.3087 95.789 29.0038H101.271C104.604 38.2532 107.937 47.5026 111.298 56.8354H105.1H105.045ZM101.464 45.7527C100.417 42.5585 99.4252 39.4475 98.3508 36.1144C97.3041 39.4753 96.3399 42.5862 95.3483 45.7527H101.464Z" fill="white"/>
    <path d="M312.113 82.2505C310.267 80.0839 307.981 79.3895 305.529 79.1673C304.537 79.084 303.49 79.1673 302.499 79.4173C301.342 79.6673 300.405 80.3061 300.295 81.6672C300.157 83.2504 300.653 84.3337 302.113 84.8614C303.628 85.3892 305.253 85.6114 306.824 86.028C308.284 86.4169 309.799 86.7502 311.148 87.3613C314.206 88.7501 315.253 91.5832 314.95 94.8053C314.509 99.7772 310.735 102.333 306.218 102.86C302.747 103.277 299.358 102.721 296.163 101.194C295.447 100.86 295.116 100.416 295.199 99.5827C295.309 98.1384 295.254 96.7218 295.282 95.2774C295.282 94.9164 295.337 94.583 295.392 93.9442C296.742 95.8607 298.312 97.1107 300.323 97.694C302.526 98.3328 304.758 98.4161 306.989 97.7773C309.138 97.1662 310.157 95.6108 309.826 93.722C309.633 92.6665 308.972 91.9999 308.063 91.7499C306.741 91.361 305.364 91.0833 304.014 90.8888C302.141 90.6111 300.295 90.25 298.642 89.25C296.494 87.9723 295.419 86.0558 295.282 83.5837C295.034 78.0563 298.367 74.501 303.876 74.3343C306.576 74.251 309.138 74.5843 311.589 75.7787C312.25 76.0842 312.526 76.5008 312.471 77.2508C312.333 78.834 312.25 80.4173 312.14 82.2505H312.113Z" fill="white"/>
    <path d="M64.909 82.2505C63.0909 80.0839 60.8045 79.3618 58.3253 79.1673C57.2235 79.084 56.0665 79.2229 55.0197 79.5006C53.9454 79.7784 53.1466 80.5006 53.0639 81.7505C52.9537 83.056 53.3945 84.2503 54.6341 84.6948C56.2318 85.2781 57.9397 85.5558 59.5925 85.9725C60.8596 86.3058 62.1818 86.5558 63.3939 87.0557C67.0851 88.6112 68.2145 91.5832 67.6636 95.2774C67.0576 99.305 64.3856 101.86 60.1985 102.638C56.3144 103.36 52.5681 102.833 48.9595 101.166C48.2433 100.833 47.9127 100.416 47.9678 99.555C48.078 97.7773 48.078 95.9996 48.2433 94.1664C49.7308 96.1107 51.5489 97.3607 53.8903 97.8606C56.039 98.305 58.16 98.3328 60.2536 97.5273C62.1818 96.8051 63.0358 95.1941 62.54 93.4442C62.2094 92.2499 61.3004 91.6943 60.2536 91.4721C58.6834 91.111 57.0582 90.9166 55.488 90.6388C55.0197 90.5555 54.579 90.4722 54.1382 90.3611C49.8134 89.1945 47.9403 86.6391 48.0229 82.0283C48.078 78.4452 50.6398 75.4176 54.5239 74.5843C57.9121 73.8621 61.2453 74.2232 64.4131 75.7509C65.0742 76.0842 65.3222 76.4731 65.2671 77.223C65.1293 78.8062 65.0742 80.3895 64.9641 82.1949L64.909 82.2505Z" fill="white"/>
    <path d="M137.522 28.8927V33.7812H130.691V56.8631H124.851V33.9201H118.02V28.9204C124.521 29.0315 130.939 29.0593 137.495 28.9204L137.522 28.8927Z" fill="white"/>
    <path d="M192.643 74.6676V79.3062C192.423 79.334 192.257 79.4173 192.064 79.3895C190.467 79.334 188.897 79.2507 187.299 79.2229C185.756 79.2229 185.756 79.2229 185.756 80.7228C185.756 87.4724 185.756 94.222 185.756 100.944C185.756 102.721 185.811 102.416 184.269 102.444C183.277 102.444 182.285 102.388 181.294 102.444C180.44 102.499 180.247 102.166 180.247 101.36C180.247 94.6386 180.247 87.9446 180.247 81.2228C180.247 80.9172 180.219 80.6117 180.247 80.3339C180.357 79.4451 179.972 79.1673 179.118 79.1951C177.217 79.2784 175.316 79.2784 173.36 79.334V74.6398H192.615L192.643 74.6676Z" fill="white"/>
    <path d="M123.226 97.6106C125.375 97.6106 127.386 97.6384 129.369 97.6106C130.168 97.6106 130.526 97.7773 130.443 98.6383C130.361 99.6383 130.388 100.638 130.416 101.638C130.416 102.36 130.14 102.527 129.479 102.527C125.898 102.499 122.317 102.471 118.736 102.527C117.937 102.527 117.717 102.249 117.717 101.499C117.717 97.0551 117.717 92.6109 117.717 88.1668C117.717 84.0837 117.717 80.0284 117.717 75.9453C117.717 75.0565 117.91 74.6676 118.874 74.7509C120.003 74.8343 121.133 74.8065 122.262 74.7509C123.061 74.6954 123.254 75.0009 123.254 75.7787C123.254 82.6116 123.254 89.4723 123.254 96.3052C123.254 96.694 123.254 97.0829 123.254 97.6106H123.226Z" fill="white"/>
    <path d="M204.13 88.5279C204.13 84.2781 204.13 80.0562 204.13 75.8064C204.13 74.9732 204.378 74.6954 205.204 74.7509C206.334 74.8065 207.463 74.8343 208.592 74.7509C209.419 74.6954 209.667 74.9454 209.667 75.8064C209.639 80.1673 209.667 84.5559 209.667 88.9167C209.667 93.0831 209.667 97.2773 209.667 101.444C209.667 102.277 209.419 102.555 208.592 102.499C207.463 102.444 206.334 102.444 205.204 102.499C204.378 102.555 204.13 102.277 204.13 101.444C204.157 97.1384 204.13 92.8332 204.13 88.5279Z" fill="white"/>
</svg>
