<svg viewBox="0 0 38 38" fill="none" xmlns="http://www.w3.org/2000/svg">
<path d="M19 28C14 28 10 24 10 19C10 14 14 10 19 10C24 10 28 14 28 19C28 24 24 28 19 28ZM19 12C15.1 12 12 15.1 12 19C12 22.9 15.1 26 19 26C22.9 26 26 22.9 26 19C26 15.1 22.9 12 19 12Z" fill="#FE912B"/>
<path d="M21.7 38H16.3L14.8 33.4C13.8 33.1 12.8 32.7 11.9 32.2L7.5 34.4L3.7 30.6L5.9 26.2C5.4 25.3 5 24.3 4.7 23.3L0 21.7V16.3L4.6 14.8C4.9 13.8 5.3 12.8 5.8 11.9L3.6 7.5L7.4 3.7L11.8 5.9C12.7 5.4 13.7 5 14.7 4.7L16.3 0H21.7L23.2 4.6C24.2 4.9 25.2 5.3 26.1 5.8L30.5 3.6L34.3 7.4L32.1 11.8C32.6 12.7 33 13.7 33.3 14.7L37.9 16.2V21.6L33.3 23.1C33 24.1 32.6 25.1 32.1 26L34.3 30.4L30.5 34.2L26.1 32C25.2 32.5 24.2 32.9 23.2 33.2L21.7 38ZM17.7 36H20.3L21.7 31.7L22.2 31.6C23.4 31.3 24.5 30.8 25.6 30.2L26.1 29.9L30.1 31.9L31.9 30.1L29.9 26.1L30.2 25.6C30.8 24.6 31.3 23.4 31.6 22.2L31.7 21.7L36 20.3V17.7L31.7 16.3L31.6 15.8C31.3 14.6 30.8 13.5 30.2 12.4L29.9 11.9L31.9 7.9L30.1 6.1L26.1 8.1L25.6 7.8C24.5 7.2 23.4 6.7 22.2 6.4L21.7 6.3L20.3 2H17.7L16.3 6.3L15.8 6.4C14.6 6.7 13.5 7.2 12.4 7.8L11.9 8.1L7.9 6.1L6.1 7.9L8.1 11.9L7.8 12.4C7.2 13.4 6.7 14.6 6.4 15.8L6.3 16.3L2 17.7V20.3L6.3 21.7L6.4 22.2C6.7 23.4 7.2 24.5 7.8 25.6L8.1 26.1L6.1 30.1L7.9 31.9L11.9 29.9L12.4 30.2C13.5 30.8 14.6 31.3 15.8 31.6L16.3 31.7L17.7 36Z" fill="#FE912B"/>
</svg>
