<svg width="18" height="17" viewBox="0 0 18 17" fill="none" xmlns="http://www.w3.org/2000/svg">
<path d="M11.5 6.09817H16.5M11.5 6.09817V15.2536M11.5 6.09817H6.5M16.5 6.09817V13.589C16.5 14.3738 16.5 14.7659 16.2558 15.0097C16.0117 15.2536 15.6192 15.2536 14.8333 15.2536H11.5M16.5 6.09817V3.60124C16.5 2.81637 16.5 2.42435 16.2558 2.18048C16.0117 1.93662 15.6192 1.93661 14.8333 1.93661H3.16667C2.38083 1.93661 1.98833 1.93662 1.74417 2.18048C1.5 2.42435 1.5 2.81637 1.5 3.60124V6.09817M16.5 6.09817H1.5M11.5 15.2536H6.5M1.5 6.09817H6.5M1.5 6.09817V13.589C1.5 14.3738 1.5 14.7659 1.74417 15.0097C1.98833 15.2536 2.38083 15.2536 3.16667 15.2536H6.5M6.5 6.09817V15.2536" stroke="#FE912B" stroke-width="2" stroke-linecap="round"/>
</svg>
