<svg viewBox="0 0 16 17" fill="none" xmlns="http://www.w3.org/2000/svg">
<path fill-rule="evenodd" clip-rule="evenodd" d="M8 6.64463C8.59674 6.64463 9.16903 6.40787 9.59099 5.98643C10.0129 5.56499 10.25 4.99339 10.25 4.39739C10.25 3.80139 10.0129 3.22979 9.59099 2.80835C9.16903 2.38691 8.59674 2.15015 8 2.15015C7.40326 2.15015 6.83097 2.38691 6.40901 2.80835C5.98705 3.22979 5.75 3.80139 5.75 4.39739C5.75 4.99339 5.98705 5.56499 6.40901 5.98643C6.83097 6.40787 7.40326 6.64463 8 6.64463ZM8 8.33006C9.04429 8.33006 10.0458 7.91572 10.7842 7.17821C11.5227 6.44069 11.9375 5.4404 11.9375 4.39739C11.9375 3.35438 11.5227 2.35409 10.7842 1.61657C10.0458 0.879055 9.04429 0.464722 8 0.464722C6.95571 0.464722 5.95419 0.879055 5.21577 1.61657C4.47734 2.35409 4.0625 3.35438 4.0625 4.39739C4.0625 5.4404 4.47734 6.44069 5.21577 7.17821C5.95419 7.91572 6.95571 8.33006 8 8.33006ZM9.125 9.70649C9.12813 9.49888 9.05008 9.29822 8.90744 9.14716C8.76481 8.9961 8.56882 8.90653 8.36112 8.89749C8.24078 8.89387 8.1204 8.892 8 8.89187C3.66875 8.89187 0.125 11.1391 0.125 13.3863C0.125 14.1314 0.421316 14.8458 0.948762 15.3726C1.47621 15.8994 2.19158 16.1954 2.9375 16.1954H5.46875C5.69253 16.1954 5.90714 16.1066 6.06537 15.9486C6.22361 15.7905 6.3125 15.5762 6.3125 15.3527C6.3125 15.1292 6.22361 14.9148 6.06537 14.7568C5.90714 14.5988 5.69253 14.51 5.46875 14.51H2.9375C2.63913 14.51 2.35298 14.3916 2.142 14.1809C1.93103 13.9701 1.8125 13.6843 1.8125 13.3863C1.8125 13.1571 2.06 12.4773 3.2975 11.747C4.44275 11.0717 6.11 10.5773 8 10.5773C8.06525 10.5773 8.13163 10.5773 8.19688 10.5795C8.69413 10.5885 9.125 10.2031 9.125 9.70649ZM13.1637 10.0514C13.652 10.1661 14.0367 10.5503 14.1526 11.038L10.9767 14.2088C10.7188 14.4669 10.3841 14.6345 10.0228 14.6864L9.4265 14.7706L9.51088 14.1751C9.56286 13.8142 9.73063 13.4799 9.989 13.2223L13.1637 10.0514ZM12.1704 15.3999L15.6219 11.9537C15.7022 11.8737 15.7658 11.7785 15.8093 11.6738C15.8527 11.5692 15.875 11.4569 15.875 11.3436C15.8747 10.5445 15.5567 9.77812 14.9909 9.21304C14.4252 8.64795 13.6579 8.33036 12.8577 8.33006C12.7444 8.32981 12.632 8.35191 12.5272 8.3951C12.4224 8.43829 12.3271 8.50172 12.2469 8.58175L8.79537 12.0301C8.27924 12.5459 7.9445 13.215 7.84138 13.9369L7.65013 15.274C7.62555 15.4465 7.64149 15.6224 7.69667 15.7877C7.75185 15.953 7.84476 16.1032 7.96806 16.2265C8.09137 16.3497 8.24168 16.4426 8.40714 16.4979C8.57259 16.5532 8.74864 16.5692 8.92138 16.5448L10.2613 16.3538C10.9841 16.2508 11.6539 15.9165 12.1704 15.401V15.3999Z" fill="#FE912B"/>
</svg>
