<svg viewBox="0 0 16 13" fill="none" xmlns="http://www.w3.org/2000/svg">
<path d="M1.3975 12.09C1.14194 12.09 0.928611 12.0042 0.7575 11.8328C0.586389 11.6613 0.500556 11.4483 0.5 11.1936V1.33402C0.5 1.07878 0.585833 0.865707 0.7575 0.694806C0.929167 0.523905 1.1425 0.438177 1.3975 0.437622H4.04C4.28444 0.437622 4.49528 0.525847 4.6725 0.702297C4.84917 0.879302 4.9375 1.08988 4.9375 1.33402V11.1936C4.9375 11.4377 4.84917 11.6483 4.6725 11.8253C4.49528 12.0017 4.28444 12.09 4.04 12.09H1.3975ZM6.6725 12.09C6.42806 12.09 6.2175 12.0017 6.04083 11.8253C5.86417 11.6483 5.77583 11.4377 5.77583 11.1936V1.33402C5.77583 1.08988 5.86417 0.879302 6.04083 0.702297C6.2175 0.525847 6.42833 0.437622 6.67333 0.437622H9.33167C9.57611 0.437622 9.78694 0.525847 9.96417 0.702297C10.1408 0.879302 10.2292 1.08988 10.2292 1.33402V11.1936C10.2292 11.4377 10.1408 11.6483 9.96417 11.8253C9.78694 12.0017 9.57611 12.09 9.33167 12.09H6.6725ZM11.96 12.09C11.7156 12.09 11.5047 12.0017 11.3275 11.8253C11.1508 11.6483 11.0625 11.4377 11.0625 11.1936V1.33402C11.0625 1.08988 11.1508 0.879302 11.3275 0.702297C11.5047 0.525847 11.7156 0.437622 11.96 0.437622H14.6025C14.8581 0.437622 15.0714 0.52335 15.2425 0.694806C15.4136 0.866262 15.4994 1.07933 15.5 1.33402V11.1936C15.5 11.4488 15.4142 11.6619 15.2425 11.8328C15.0708 12.0037 14.8575 12.0894 14.6025 12.09H11.96Z" fill="#FE912B"/>
</svg>
