<svg viewBox="0 0 104 80" fill="none" xmlns="http://www.w3.org/2000/svg">
<g clip-path="url(#clip0_1_1694)" filter="url(#filter0_f_1_1694)">
<path d="M96.5412 23.7553C94.2279 13.8553 85.9064 7.28658 75.5687 7.22058C71.6137 7.19627 67.6586 7.21711 63.7053 7.21711C62.5029 7.21711 61.3023 7.19105 60.1018 7.22579C58.8291 7.26227 58.0592 8.0699 58.1611 9.18842C58.249 10.1715 59.0471 10.7742 60.3074 10.7759C65.2574 10.7811 70.2074 10.7672 75.1592 10.7863C76.2385 10.7898 77.3283 10.8263 78.3971 10.9687C88.9914 12.3894 95.8275 23.0675 92.6951 33.1846C90.7352 39.5119 84.5881 45.5683 75.2014 45.5266C59.7344 45.4572 44.2674 45.5093 28.8004 45.5006C27.8354 45.5006 26.8598 45.478 25.9053 45.353C16.4254 44.1181 9.7791 35.8524 10.651 26.4179C11.4525 17.7458 18.8652 10.9183 27.6965 10.8019C33.0561 10.7325 38.4174 10.7863 43.7787 10.7742C45.0461 10.7707 45.8354 10.0759 45.8424 9.01474C45.8512 7.97784 45.0988 7.22579 43.8965 7.22927C38.0693 7.2449 32.2299 7.07816 26.4168 7.38558C17.2744 7.86669 9.49961 14.6629 7.52207 23.5C7.34102 24.3094 7.17402 25.1205 7 25.9316V30.2737C7.27949 31.5051 7.4957 32.7539 7.85078 33.9645C10.4541 42.8137 18.6209 48.9447 27.9426 49.0055C34.9984 49.0524 42.0578 49.0177 49.1137 49.0194H50.193V55.4753H49.2086C45.0795 55.4753 40.9504 55.4735 36.8213 55.477C35.1355 55.4787 34.4799 56.1162 34.4781 57.7801C34.4729 62.0041 34.4992 66.2281 34.4605 70.4521C34.4518 71.5914 34.7488 72.4772 35.8281 73H69.2266C70.3059 72.4824 70.6258 71.6157 70.6135 70.4625C70.5713 66.2663 70.5977 62.0683 70.5959 57.8721C70.5941 56.0936 69.9701 55.477 68.1684 55.477C63.7158 55.4753 59.2615 55.4753 54.809 55.4753H53.8123V49.0194H54.8705C61.8719 49.0177 68.8732 49.0455 75.8746 49.0107C85.6305 48.9621 93.952 42.5323 96.3689 33.2159C96.6221 32.245 96.7926 31.255 97 30.2737V25.9316C96.8471 25.2056 96.71 24.4761 96.5412 23.7553ZM66.9344 59.1035V69.37H38.115C38.101 69.1095 38.0816 68.9132 38.0816 68.7152C38.0799 65.5368 38.0799 62.3584 38.0799 59.1035H66.9344Z" fill="url(#paint0_linear_1_1694)"/>
<path d="M52.5169 10.4667C51.6486 10.7168 50.7802 10.333 50.3988 9.53058C50.0208 8.73684 50.2845 7.83542 51.0492 7.33521C51.239 7.21016 51.4482 7.11116 51.6486 7H52.3517C53.0074 7.33521 53.6296 7.70342 53.7456 8.52147C53.8704 9.40553 53.3519 10.2271 52.5169 10.4667Z" fill="url(#paint1_linear_1_1694)"/>
<path d="M51.9809 14.4875C44.3994 14.4927 38.1926 20.6464 38.2031 28.1426C38.2154 35.7256 44.4293 41.7612 52.1936 41.7334C59.6572 41.7073 65.8184 35.5346 65.7955 28.1061C65.7744 20.5943 59.5729 14.4806 51.9809 14.4875ZM51.9545 38.2545C46.3471 38.2215 41.782 33.664 41.7856 28.1044C41.7891 22.5413 46.3682 18.0185 52.0002 18.0185C57.634 18.0203 62.2078 22.536 62.2149 28.1061C62.2219 33.697 57.5813 38.2875 51.9545 38.2545Z" fill="url(#paint2_linear_1_1694)"/>
<path d="M78.288 15.2101C74.9059 15.1857 72.0618 17.9664 72.046 21.3133C72.0284 24.7644 74.7653 27.5052 78.2388 27.5138C81.677 27.5243 84.4702 24.8183 84.5001 21.4488C84.5317 18.0637 81.7139 15.2344 78.288 15.2101ZM78.2616 24.0245C76.8237 24.0263 75.5651 22.7775 75.5792 21.3654C75.5915 19.9534 76.778 18.788 78.2141 18.7723C79.7136 18.755 80.9141 19.903 80.9247 21.362C80.9352 22.8122 79.7223 24.0245 78.2616 24.0245Z" fill="url(#paint3_linear_1_1694)"/>
<path d="M24.7785 28.5073C24.7645 29.5234 24.028 30.2007 22.8854 30.2529C22.8256 30.2563 22.7676 30.2546 22.7096 30.2546H20.1625C19.2836 30.2546 18.4047 30.2754 17.5276 30.2494C16.4184 30.2146 15.6379 29.4765 15.6256 28.4952C15.6151 27.5295 16.3076 26.767 17.408 26.734C19.2783 26.6784 21.1539 26.6784 23.0242 26.7375C24.1334 26.7705 24.7926 27.5139 24.7785 28.5073Z" fill="url(#paint4_linear_1_1694)"/>
<path d="M32.7132 28.45C32.7114 29.4192 31.887 30.2303 30.9255 30.2094C29.9675 30.1903 29.1413 29.3375 29.1712 28.3979C29.2011 27.4826 30.0097 26.6941 30.9343 26.6802C31.8958 26.6663 32.7149 27.4809 32.7132 28.45Z" fill="url(#paint5_linear_1_1694)"/>
<path d="M52.0002 21.6451C48.4195 21.6451 45.4875 24.5525 45.4805 28.1044C45.4752 31.6753 48.3721 34.5793 51.958 34.5984C55.5932 34.6158 58.5287 31.7118 58.5199 28.1026C58.5111 24.5456 55.5826 21.6451 52.0002 21.6451ZM52.0371 31.0639C50.383 31.0865 49.0049 29.7474 49.0084 28.1183C49.0119 26.5082 50.3215 25.2177 51.9615 25.2056C53.6525 25.1934 54.9955 26.4891 54.9902 28.1304C54.9867 29.7266 53.6648 31.0396 52.0371 31.0639Z" fill="url(#paint6_linear_1_1694)"/>
</g>
<defs>
<filter id="filter0_f_1_1694" x="0" y="0" width="104" height="80" filterUnits="userSpaceOnUse" color-interpolation-filters="sRGB">
<feFlood flood-opacity="0" result="BackgroundImageFix"/>
<feBlend mode="normal" in="SourceGraphic" in2="BackgroundImageFix" result="shape"/>
<feGaussianBlur stdDeviation="3.5" result="effect1_foregroundBlur_1_1694"/>
</filter>
<linearGradient id="paint0_linear_1_1694" x1="52" y1="7.19797" x2="52" y2="73" gradientUnits="userSpaceOnUse">
<stop stop-color="#FFBD7E"/>
<stop offset="0.245" stop-color="#FFA24B"/>
<stop offset="1" stop-color="#FFA44E" stop-opacity="0.3"/>
</linearGradient>
<linearGradient id="paint1_linear_1_1694" x1="51.9961" y1="7" x2="51.9961" y2="10.5425" gradientUnits="userSpaceOnUse">
<stop stop-color="#FFBD7E"/>
<stop offset="0.245" stop-color="#FFA24B"/>
<stop offset="1" stop-color="#FFA44E" stop-opacity="0.3"/>
</linearGradient>
<linearGradient id="paint2_linear_1_1694" x1="51.9994" y1="14.4875" x2="51.9994" y2="41.7335" gradientUnits="userSpaceOnUse">
<stop stop-color="#FFBD7E"/>
<stop offset="0.245" stop-color="#FFA24B"/>
<stop offset="1" stop-color="#FFA44E" stop-opacity="0.3"/>
</linearGradient>
<linearGradient id="paint3_linear_1_1694" x1="78.2731" y1="15.2099" x2="78.2731" y2="27.5139" gradientUnits="userSpaceOnUse">
<stop stop-color="#FFBD7E"/>
<stop offset="0.245" stop-color="#FFA24B"/>
<stop offset="1" stop-color="#FFA44E" stop-opacity="0.3"/>
</linearGradient>
<linearGradient id="paint4_linear_1_1694" x1="20.2021" y1="26.6927" x2="20.2021" y2="30.2625" gradientUnits="userSpaceOnUse">
<stop stop-color="#FFBD7E"/>
<stop offset="0.245" stop-color="#FFA24B"/>
<stop offset="1" stop-color="#FFA44E" stop-opacity="0.3"/>
</linearGradient>
<linearGradient id="paint5_linear_1_1694" x1="30.9418" y1="26.68" x2="30.9418" y2="30.2098" gradientUnits="userSpaceOnUse">
<stop stop-color="#FFBD7E"/>
<stop offset="0.245" stop-color="#FFA24B"/>
<stop offset="1" stop-color="#FFA44E" stop-opacity="0.3"/>
</linearGradient>
<linearGradient id="paint6_linear_1_1694" x1="52.0002" y1="21.6451" x2="52.0002" y2="34.5985" gradientUnits="userSpaceOnUse">
<stop stop-color="#FFBD7E"/>
<stop offset="0.245" stop-color="#FFA24B"/>
<stop offset="1" stop-color="#FFA44E" stop-opacity="0.3"/>
</linearGradient>
<clipPath id="clip0_1_1694">
<rect width="90" height="66" fill="white" transform="translate(7 7)"/>
</clipPath>
</defs>
</svg>
