<svg viewBox="0 0 75 83" fill="none" xmlns="http://www.w3.org/2000/svg">
<g clip-path="url(#clip0_1_1688)">
<path d="M74.7419 10.2615C74.0503 7.44406 71.6786 5.56684 68.7516 5.53279C67.0812 5.51334 65.4107 5.52955 63.5812 5.52955C63.8912 3.01686 63.3766 0.915918 60.7143 0H58.4416C57.9578 0.275586 57.4351 0.500918 56.9984 0.838105C56.013 1.60326 55.6071 2.65859 55.625 3.89225C55.6315 4.39965 55.6266 4.90867 55.6266 5.47119H19.3442C19.6315 3.05414 19.1526 0.961309 16.5584 0H14.2857C12.1006 0.782988 11.1964 2.36518 11.3766 4.63146C11.3961 4.89408 11.3782 5.15994 11.3782 5.52793C9.87175 5.52793 8.4237 5.55387 6.97727 5.52145C5.48701 5.4874 4.06818 5.71273 2.81818 6.57029C1.2711 7.63373 0.350649 9.09109 0.141234 10.9764C0.11526 11.2099 0.0487013 11.4401 0 11.6719V34.8535C0.438312 35.857 0.842532 36.1536 1.5763 36.0077C2.2776 35.8683 2.56818 35.3739 2.56981 34.3007C2.57143 32.383 2.56981 30.4652 2.56981 28.5458V25.4625H72.4302V26.4076C72.4302 36.3757 72.3961 46.3422 72.4594 56.3087C72.4708 58.3156 71.2597 59.6757 69.1055 59.6109C66.4854 59.5298 63.8555 59.5314 61.237 59.6449C58.3896 59.7681 56.3506 62.0214 56.3393 64.8713C56.3279 67.3564 56.3393 69.84 56.336 72.3251C56.336 74.6887 55.3036 75.7083 52.9107 75.7083C37.5471 75.7083 22.1834 75.6824 6.8198 75.7343C4.4026 75.7424 2.51461 74.2104 2.53571 71.5032C2.61851 61.266 2.57143 51.0288 2.56493 40.7916C2.56493 40.4187 2.61039 39.9729 2.43019 39.6925C2.21104 39.3521 1.78084 38.9533 1.43019 38.9419C1.03409 38.9289 0.61039 39.2953 0.232143 39.5466C0.103896 39.6341 0.0746753 39.8724 0 40.041V77.002C0.0795455 77.4218 0.133117 77.8498 0.24026 78.2632C0.818182 80.4922 2.19318 81.9901 4.38474 82.7325C4.60552 82.8071 4.81656 82.9108 5.03247 83H69.9675C70.0536 82.9465 70.1331 82.8687 70.2273 82.8411C72.9464 82.0549 74.5114 80.2814 74.8701 77.464C74.8896 77.3067 74.9562 77.156 75 77.002V11.6719C74.9156 11.2018 74.8571 10.7252 74.7419 10.2615ZM58.8019 64.68C58.836 63.1189 60.0536 62.0782 61.6445 62.0701C64.1575 62.0555 66.6721 62.0652 69.1867 62.0652C69.6688 62.0652 70.1526 62.0652 70.5536 61.8917C66.6169 65.8229 62.6802 69.7557 58.7808 73.6495C58.7808 70.7624 58.7338 67.7196 58.8019 64.68ZM72.4269 76.6939C72.4221 79.0251 70.9075 80.5667 68.586 80.5667C47.8653 80.5732 27.1445 80.5732 6.42532 80.5684C4.23539 80.5667 2.57143 79.0299 2.63636 77.0036C4.02273 77.9746 5.48864 78.1481 7.03734 78.1464C23.0779 78.1254 39.1185 78.1221 55.1591 78.1481C57.1834 78.1513 58.8166 77.4559 60.2256 76.0358C64.013 72.2165 67.8328 68.428 71.6315 64.62C71.8393 64.4125 71.9854 64.1467 72.1591 63.9084C72.2289 63.9489 72.2987 63.9911 72.3685 64.0332C72.3896 64.2277 72.4269 64.4239 72.4269 64.62C72.4318 68.6436 72.4367 72.6688 72.4269 76.6939ZM58.6331 2.73803C59.0682 2.43812 59.8864 2.47703 60.4529 2.63752C61.1769 2.8434 61.3068 3.69934 61.0812 5.49875H58.0893C58.2451 4.53906 57.6396 3.42051 58.6331 2.73803ZM13.9042 3.49346C14.0065 2.70723 14.6721 2.3441 15.6299 2.43164C16.414 2.50297 16.8669 2.95525 16.8961 3.73338C16.9172 4.29428 16.901 4.85842 16.901 5.50199H13.8864C13.8864 4.81627 13.8198 4.14514 13.9042 3.49346ZM72.4594 12.1858C72.3409 15.4231 72.4302 18.6685 72.4302 21.9107V22.8412H2.56981V20.2086C2.56981 17.3992 2.56169 14.5898 2.57305 11.7805C2.58117 9.68441 3.86688 8.17842 5.93344 8.04549C7.70617 7.93363 9.49188 8.02279 11.3815 8.02279C11.3815 9.24348 11.3588 10.422 11.3864 11.6005C11.4318 13.6188 13.0682 15.2594 14.987 15.248C15.7516 15.2431 16.2776 14.8087 16.3377 14.1343C16.3945 13.494 15.9123 12.9493 15.1721 12.818C14.1981 12.6478 13.8653 12.2911 13.8458 11.3136C13.8247 10.2421 13.8409 9.16891 13.8409 8.04387H55.6705C55.6705 9.40559 55.5974 10.7252 55.6883 12.0334C55.8101 13.8117 57.4123 15.2302 59.1688 15.2448C59.9578 15.2513 60.4757 14.8492 60.5438 14.1781C60.6153 13.4583 60.1802 12.9558 59.3636 12.8164C58.4399 12.6591 58.1088 12.2863 58.1006 11.3558C58.0893 10.2777 58.0974 9.19971 58.0974 7.99037H59.0032C62.0877 7.99037 65.1721 8.04711 68.2549 7.97254C70.9237 7.90932 72.5487 9.74764 72.4594 12.1858Z" fill="url(#paint0_linear_1_1688)"/>
<path d="M48.7368 61.1947C48.0404 61.9404 47.3375 62.0393 46.7644 61.5059C46.2093 60.9904 46.2774 60.2528 46.9463 59.5217C53.8245 52.0209 50.3456 40.2972 40.5209 37.859C32.5907 35.8926 24.693 41.9053 24.4771 50.0723C24.2693 57.9168 30.6622 64.0883 38.4933 63.5145C39.7904 63.4188 41.0696 62.9746 42.3359 62.6148C43.2661 62.3505 43.9317 62.5369 44.2092 63.2907C44.4657 63.9862 44.1102 64.6006 43.206 64.9491C41.3472 65.664 39.4284 66.0612 37.7969 66.0109C29.7174 65.9656 23.2774 60.3695 22.12 52.7034C20.8375 44.2153 27.0778 36.1374 35.6687 35.1648C44.107 34.2083 51.7109 40.007 52.8619 48.3978C53.5307 53.2756 52.1118 57.5731 48.7368 61.1947Z" fill="url(#paint1_linear_1_1688)"/>
<path d="M43.8199 55.0702C43.4059 55.7413 42.6673 55.8353 41.8475 55.2988C40.2663 54.2645 38.6981 53.2092 37.1088 52.1895C36.5001 51.7988 36.2322 51.2865 36.242 50.5716C36.2614 49.1953 36.2484 47.819 36.2484 46.4411C36.2484 44.9837 36.229 43.5264 36.2566 42.069C36.2728 41.2439 36.7679 40.7251 37.4595 40.7024C38.1851 40.6781 38.6884 41.2098 38.7452 42.0723C38.7598 42.2879 38.7501 42.5035 38.7501 42.7207C38.7517 45.0145 38.7663 47.3084 38.7387 49.6039C38.7322 50.1226 38.8848 50.4355 39.3312 50.7143C40.6348 51.5297 41.9108 52.3921 43.1916 53.2432C44.0098 53.7879 44.2192 54.4201 43.8183 55.0702H43.8199Z" fill="url(#paint2_linear_1_1688)"/>
</g>
<defs>
<linearGradient id="paint0_linear_1_1688" x1="37.5" y1="0" x2="37.5" y2="83" gradientUnits="userSpaceOnUse">
<stop stop-color="#FFA44E"/>
<stop offset="1" stop-color="#FE912B" stop-opacity="0.3"/>
</linearGradient>
<linearGradient id="paint1_linear_1_1688" x1="37.4879" y1="35.0617" x2="37.4879" y2="66.0152" gradientUnits="userSpaceOnUse">
<stop stop-color="#FFA44E"/>
<stop offset="1" stop-color="#FE912B" stop-opacity="0.3"/>
</linearGradient>
<linearGradient id="paint2_linear_1_1688" x1="40.1288" y1="40.7016" x2="40.1288" y2="55.6454" gradientUnits="userSpaceOnUse">
<stop stop-color="#FFA44E"/>
<stop offset="1" stop-color="#FE912B" stop-opacity="0.3"/>
</linearGradient>
<clipPath id="clip0_1_1688">
<rect width="75" height="83" fill="white"/>
</clipPath>
</defs>
</svg>
